<mxfile host="app.diagrams.net" agent="Mozilla/5.0 (Windows NT 10.0; Win64; x64) AppleWebKit/537.36 (KHTML, like Gecko) Chrome/131.0.0.0 Safari/537.36" version="26.0.6">
  <diagram id="C5RBs43oDa-KdzZeNtuy" name="Page-1">
    <mxGraphModel dx="1425" dy="1265" grid="1" gridSize="10" guides="1" tooltips="1" connect="1" arrows="1" fold="1" page="1" pageScale="1" pageWidth="827" pageHeight="1169" background="none" math="0" shadow="0">
      <root>
        <mxCell id="WIyWlLk6GJQsqaUBKTNV-0" />
        <mxCell id="WIyWlLk6GJQsqaUBKTNV-1" parent="WIyWlLk6GJQsqaUBKTNV-0" />
        <mxCell id="RJNzWupUDamrCCXYR7qD-47" value="Клиенты" style="shape=table;startSize=30;container=1;collapsible=0;childLayout=tableLayout;fontSize=16;" vertex="1" parent="WIyWlLk6GJQsqaUBKTNV-1">
          <mxGeometry x="300" y="850" width="240" height="270" as="geometry" />
        </mxCell>
        <mxCell id="RJNzWupUDamrCCXYR7qD-48" value="" style="shape=tableRow;horizontal=0;startSize=0;swimlaneHead=0;swimlaneBody=0;strokeColor=inherit;top=0;left=0;bottom=0;right=0;collapsible=0;dropTarget=0;fillColor=none;points=[[0,0.5],[1,0.5]];portConstraint=eastwest;fontSize=16;" vertex="1" parent="RJNzWupUDamrCCXYR7qD-47">
          <mxGeometry y="30" width="240" height="30" as="geometry" />
        </mxCell>
        <mxCell id="RJNzWupUDamrCCXYR7qD-49" value="&lt;font style=&quot;font-size: 12px;&quot;&gt;pk&lt;/font&gt;" style="shape=partialRectangle;html=1;whiteSpace=wrap;connectable=0;strokeColor=inherit;overflow=hidden;fillColor=none;top=0;left=0;bottom=0;right=0;pointerEvents=1;fontSize=16;" vertex="1" parent="RJNzWupUDamrCCXYR7qD-48">
          <mxGeometry width="49" height="30" as="geometry">
            <mxRectangle width="49" height="30" as="alternateBounds" />
          </mxGeometry>
        </mxCell>
        <mxCell id="RJNzWupUDamrCCXYR7qD-50" value="&lt;span style=&quot;font-size: 12px; text-wrap-mode: nowrap;&quot;&gt;id клиента&lt;/span&gt;" style="shape=partialRectangle;html=1;whiteSpace=wrap;connectable=0;strokeColor=inherit;overflow=hidden;fillColor=none;top=0;left=0;bottom=0;right=0;pointerEvents=1;fontSize=16;align=left;" vertex="1" parent="RJNzWupUDamrCCXYR7qD-48">
          <mxGeometry x="49" width="132" height="30" as="geometry">
            <mxRectangle width="132" height="30" as="alternateBounds" />
          </mxGeometry>
        </mxCell>
        <mxCell id="RJNzWupUDamrCCXYR7qD-51" value="" style="shape=partialRectangle;html=1;whiteSpace=wrap;connectable=0;strokeColor=inherit;overflow=hidden;fillColor=none;top=0;left=0;bottom=0;right=0;pointerEvents=1;fontSize=16;" vertex="1" parent="RJNzWupUDamrCCXYR7qD-48">
          <mxGeometry x="181" width="59" height="30" as="geometry">
            <mxRectangle width="59" height="30" as="alternateBounds" />
          </mxGeometry>
        </mxCell>
        <mxCell id="RJNzWupUDamrCCXYR7qD-52" value="" style="shape=tableRow;horizontal=0;startSize=0;swimlaneHead=0;swimlaneBody=0;strokeColor=inherit;top=0;left=0;bottom=0;right=0;collapsible=0;dropTarget=0;fillColor=none;points=[[0,0.5],[1,0.5]];portConstraint=eastwest;fontSize=16;" vertex="1" parent="RJNzWupUDamrCCXYR7qD-47">
          <mxGeometry y="60" width="240" height="30" as="geometry" />
        </mxCell>
        <mxCell id="RJNzWupUDamrCCXYR7qD-53" value="" style="shape=partialRectangle;html=1;whiteSpace=wrap;connectable=0;strokeColor=inherit;overflow=hidden;fillColor=none;top=0;left=0;bottom=0;right=0;pointerEvents=1;fontSize=16;" vertex="1" parent="RJNzWupUDamrCCXYR7qD-52">
          <mxGeometry width="49" height="30" as="geometry">
            <mxRectangle width="49" height="30" as="alternateBounds" />
          </mxGeometry>
        </mxCell>
        <mxCell id="RJNzWupUDamrCCXYR7qD-54" value="&lt;span style=&quot;font-size: 12px; text-wrap-mode: nowrap;&quot;&gt;Фамилия&lt;/span&gt;" style="shape=partialRectangle;html=1;whiteSpace=wrap;connectable=0;strokeColor=inherit;overflow=hidden;fillColor=none;top=0;left=0;bottom=0;right=0;pointerEvents=1;fontSize=16;align=left;" vertex="1" parent="RJNzWupUDamrCCXYR7qD-52">
          <mxGeometry x="49" width="132" height="30" as="geometry">
            <mxRectangle width="132" height="30" as="alternateBounds" />
          </mxGeometry>
        </mxCell>
        <mxCell id="RJNzWupUDamrCCXYR7qD-55" value="" style="shape=partialRectangle;html=1;whiteSpace=wrap;connectable=0;strokeColor=inherit;overflow=hidden;fillColor=none;top=0;left=0;bottom=0;right=0;pointerEvents=1;fontSize=16;" vertex="1" parent="RJNzWupUDamrCCXYR7qD-52">
          <mxGeometry x="181" width="59" height="30" as="geometry">
            <mxRectangle width="59" height="30" as="alternateBounds" />
          </mxGeometry>
        </mxCell>
        <mxCell id="RJNzWupUDamrCCXYR7qD-56" value="" style="shape=tableRow;horizontal=0;startSize=0;swimlaneHead=0;swimlaneBody=0;strokeColor=inherit;top=0;left=0;bottom=0;right=0;collapsible=0;dropTarget=0;fillColor=none;points=[[0,0.5],[1,0.5]];portConstraint=eastwest;fontSize=16;" vertex="1" parent="RJNzWupUDamrCCXYR7qD-47">
          <mxGeometry y="90" width="240" height="30" as="geometry" />
        </mxCell>
        <mxCell id="RJNzWupUDamrCCXYR7qD-57" value="" style="shape=partialRectangle;html=1;whiteSpace=wrap;connectable=0;strokeColor=inherit;overflow=hidden;fillColor=none;top=0;left=0;bottom=0;right=0;pointerEvents=1;fontSize=16;" vertex="1" parent="RJNzWupUDamrCCXYR7qD-56">
          <mxGeometry width="49" height="30" as="geometry">
            <mxRectangle width="49" height="30" as="alternateBounds" />
          </mxGeometry>
        </mxCell>
        <mxCell id="RJNzWupUDamrCCXYR7qD-58" value="&lt;span style=&quot;font-size: 12px; text-wrap-mode: nowrap;&quot;&gt;Имя&lt;/span&gt;" style="shape=partialRectangle;html=1;whiteSpace=wrap;connectable=0;strokeColor=inherit;overflow=hidden;fillColor=none;top=0;left=0;bottom=0;right=0;pointerEvents=1;fontSize=16;align=left;" vertex="1" parent="RJNzWupUDamrCCXYR7qD-56">
          <mxGeometry x="49" width="132" height="30" as="geometry">
            <mxRectangle width="132" height="30" as="alternateBounds" />
          </mxGeometry>
        </mxCell>
        <mxCell id="RJNzWupUDamrCCXYR7qD-59" value="" style="shape=partialRectangle;html=1;whiteSpace=wrap;connectable=0;strokeColor=inherit;overflow=hidden;fillColor=none;top=0;left=0;bottom=0;right=0;pointerEvents=1;fontSize=16;labelBackgroundColor=default;" vertex="1" parent="RJNzWupUDamrCCXYR7qD-56">
          <mxGeometry x="181" width="59" height="30" as="geometry">
            <mxRectangle width="59" height="30" as="alternateBounds" />
          </mxGeometry>
        </mxCell>
        <mxCell id="RJNzWupUDamrCCXYR7qD-115" value="" style="shape=tableRow;horizontal=0;startSize=0;swimlaneHead=0;swimlaneBody=0;strokeColor=inherit;top=0;left=0;bottom=0;right=0;collapsible=0;dropTarget=0;fillColor=none;points=[[0,0.5],[1,0.5]];portConstraint=eastwest;fontSize=16;" vertex="1" parent="RJNzWupUDamrCCXYR7qD-47">
          <mxGeometry y="120" width="240" height="30" as="geometry" />
        </mxCell>
        <mxCell id="RJNzWupUDamrCCXYR7qD-116" value="" style="shape=partialRectangle;html=1;whiteSpace=wrap;connectable=0;strokeColor=inherit;overflow=hidden;fillColor=none;top=0;left=0;bottom=0;right=0;pointerEvents=1;fontSize=16;" vertex="1" parent="RJNzWupUDamrCCXYR7qD-115">
          <mxGeometry width="49" height="30" as="geometry">
            <mxRectangle width="49" height="30" as="alternateBounds" />
          </mxGeometry>
        </mxCell>
        <mxCell id="RJNzWupUDamrCCXYR7qD-117" value="&lt;span style=&quot;font-size: 12px; text-wrap-mode: nowrap;&quot;&gt;Отчество&lt;/span&gt;" style="shape=partialRectangle;html=1;whiteSpace=wrap;connectable=0;strokeColor=inherit;overflow=hidden;fillColor=none;top=0;left=0;bottom=0;right=0;pointerEvents=1;fontSize=16;align=left;" vertex="1" parent="RJNzWupUDamrCCXYR7qD-115">
          <mxGeometry x="49" width="132" height="30" as="geometry">
            <mxRectangle width="132" height="30" as="alternateBounds" />
          </mxGeometry>
        </mxCell>
        <mxCell id="RJNzWupUDamrCCXYR7qD-118" value="" style="shape=partialRectangle;html=1;whiteSpace=wrap;connectable=0;strokeColor=inherit;overflow=hidden;fillColor=none;top=0;left=0;bottom=0;right=0;pointerEvents=1;fontSize=16;labelBackgroundColor=default;" vertex="1" parent="RJNzWupUDamrCCXYR7qD-115">
          <mxGeometry x="181" width="59" height="30" as="geometry">
            <mxRectangle width="59" height="30" as="alternateBounds" />
          </mxGeometry>
        </mxCell>
        <mxCell id="RJNzWupUDamrCCXYR7qD-119" value="" style="shape=tableRow;horizontal=0;startSize=0;swimlaneHead=0;swimlaneBody=0;strokeColor=inherit;top=0;left=0;bottom=0;right=0;collapsible=0;dropTarget=0;fillColor=none;points=[[0,0.5],[1,0.5]];portConstraint=eastwest;fontSize=16;" vertex="1" parent="RJNzWupUDamrCCXYR7qD-47">
          <mxGeometry y="150" width="240" height="30" as="geometry" />
        </mxCell>
        <mxCell id="RJNzWupUDamrCCXYR7qD-120" value="" style="shape=partialRectangle;html=1;whiteSpace=wrap;connectable=0;strokeColor=inherit;overflow=hidden;fillColor=none;top=0;left=0;bottom=0;right=0;pointerEvents=1;fontSize=16;" vertex="1" parent="RJNzWupUDamrCCXYR7qD-119">
          <mxGeometry width="49" height="30" as="geometry">
            <mxRectangle width="49" height="30" as="alternateBounds" />
          </mxGeometry>
        </mxCell>
        <mxCell id="RJNzWupUDamrCCXYR7qD-121" value="&lt;span style=&quot;font-size: 12px; text-wrap-mode: nowrap;&quot;&gt;Адрес&lt;/span&gt;" style="shape=partialRectangle;html=1;whiteSpace=wrap;connectable=0;strokeColor=inherit;overflow=hidden;fillColor=none;top=0;left=0;bottom=0;right=0;pointerEvents=1;fontSize=16;align=left;" vertex="1" parent="RJNzWupUDamrCCXYR7qD-119">
          <mxGeometry x="49" width="132" height="30" as="geometry">
            <mxRectangle width="132" height="30" as="alternateBounds" />
          </mxGeometry>
        </mxCell>
        <mxCell id="RJNzWupUDamrCCXYR7qD-122" value="" style="shape=partialRectangle;html=1;whiteSpace=wrap;connectable=0;strokeColor=inherit;overflow=hidden;fillColor=none;top=0;left=0;bottom=0;right=0;pointerEvents=1;fontSize=16;labelBackgroundColor=default;" vertex="1" parent="RJNzWupUDamrCCXYR7qD-119">
          <mxGeometry x="181" width="59" height="30" as="geometry">
            <mxRectangle width="59" height="30" as="alternateBounds" />
          </mxGeometry>
        </mxCell>
        <mxCell id="RJNzWupUDamrCCXYR7qD-123" value="" style="shape=tableRow;horizontal=0;startSize=0;swimlaneHead=0;swimlaneBody=0;strokeColor=inherit;top=0;left=0;bottom=0;right=0;collapsible=0;dropTarget=0;fillColor=none;points=[[0,0.5],[1,0.5]];portConstraint=eastwest;fontSize=16;" vertex="1" parent="RJNzWupUDamrCCXYR7qD-47">
          <mxGeometry y="180" width="240" height="30" as="geometry" />
        </mxCell>
        <mxCell id="RJNzWupUDamrCCXYR7qD-124" value="" style="shape=partialRectangle;html=1;whiteSpace=wrap;connectable=0;strokeColor=inherit;overflow=hidden;fillColor=none;top=0;left=0;bottom=0;right=0;pointerEvents=1;fontSize=16;" vertex="1" parent="RJNzWupUDamrCCXYR7qD-123">
          <mxGeometry width="49" height="30" as="geometry">
            <mxRectangle width="49" height="30" as="alternateBounds" />
          </mxGeometry>
        </mxCell>
        <mxCell id="RJNzWupUDamrCCXYR7qD-125" value="&lt;span style=&quot;font-size: 12px; text-wrap-mode: nowrap;&quot;&gt;Дата рождения&lt;/span&gt;" style="shape=partialRectangle;html=1;whiteSpace=wrap;connectable=0;strokeColor=inherit;overflow=hidden;fillColor=none;top=0;left=0;bottom=0;right=0;pointerEvents=1;fontSize=16;align=left;" vertex="1" parent="RJNzWupUDamrCCXYR7qD-123">
          <mxGeometry x="49" width="132" height="30" as="geometry">
            <mxRectangle width="132" height="30" as="alternateBounds" />
          </mxGeometry>
        </mxCell>
        <mxCell id="RJNzWupUDamrCCXYR7qD-126" value="" style="shape=partialRectangle;html=1;whiteSpace=wrap;connectable=0;strokeColor=inherit;overflow=hidden;fillColor=none;top=0;left=0;bottom=0;right=0;pointerEvents=1;fontSize=16;labelBackgroundColor=default;" vertex="1" parent="RJNzWupUDamrCCXYR7qD-123">
          <mxGeometry x="181" width="59" height="30" as="geometry">
            <mxRectangle width="59" height="30" as="alternateBounds" />
          </mxGeometry>
        </mxCell>
        <mxCell id="RJNzWupUDamrCCXYR7qD-333" value="" style="shape=tableRow;horizontal=0;startSize=0;swimlaneHead=0;swimlaneBody=0;strokeColor=inherit;top=0;left=0;bottom=0;right=0;collapsible=0;dropTarget=0;fillColor=none;points=[[0,0.5],[1,0.5]];portConstraint=eastwest;fontSize=16;" vertex="1" parent="RJNzWupUDamrCCXYR7qD-47">
          <mxGeometry y="210" width="240" height="30" as="geometry" />
        </mxCell>
        <mxCell id="RJNzWupUDamrCCXYR7qD-334" value="fk" style="shape=partialRectangle;html=1;whiteSpace=wrap;connectable=0;strokeColor=inherit;overflow=hidden;fillColor=none;top=0;left=0;bottom=0;right=0;pointerEvents=1;fontSize=16;" vertex="1" parent="RJNzWupUDamrCCXYR7qD-333">
          <mxGeometry width="49" height="30" as="geometry">
            <mxRectangle width="49" height="30" as="alternateBounds" />
          </mxGeometry>
        </mxCell>
        <mxCell id="RJNzWupUDamrCCXYR7qD-335" value="&lt;span style=&quot;font-size: 12px; text-wrap-mode: nowrap;&quot;&gt;Код квартиры&lt;/span&gt;" style="shape=partialRectangle;html=1;whiteSpace=wrap;connectable=0;strokeColor=inherit;overflow=hidden;fillColor=none;top=0;left=0;bottom=0;right=0;pointerEvents=1;fontSize=16;align=left;" vertex="1" parent="RJNzWupUDamrCCXYR7qD-333">
          <mxGeometry x="49" width="132" height="30" as="geometry">
            <mxRectangle width="132" height="30" as="alternateBounds" />
          </mxGeometry>
        </mxCell>
        <mxCell id="RJNzWupUDamrCCXYR7qD-336" value="" style="shape=partialRectangle;html=1;whiteSpace=wrap;connectable=0;strokeColor=inherit;overflow=hidden;fillColor=none;top=0;left=0;bottom=0;right=0;pointerEvents=1;fontSize=16;labelBackgroundColor=default;" vertex="1" parent="RJNzWupUDamrCCXYR7qD-333">
          <mxGeometry x="181" width="59" height="30" as="geometry">
            <mxRectangle width="59" height="30" as="alternateBounds" />
          </mxGeometry>
        </mxCell>
        <mxCell id="RJNzWupUDamrCCXYR7qD-337" value="" style="shape=tableRow;horizontal=0;startSize=0;swimlaneHead=0;swimlaneBody=0;strokeColor=inherit;top=0;left=0;bottom=0;right=0;collapsible=0;dropTarget=0;fillColor=none;points=[[0,0.5],[1,0.5]];portConstraint=eastwest;fontSize=16;" vertex="1" parent="RJNzWupUDamrCCXYR7qD-47">
          <mxGeometry y="240" width="240" height="30" as="geometry" />
        </mxCell>
        <mxCell id="RJNzWupUDamrCCXYR7qD-338" value="fk" style="shape=partialRectangle;html=1;whiteSpace=wrap;connectable=0;strokeColor=inherit;overflow=hidden;fillColor=none;top=0;left=0;bottom=0;right=0;pointerEvents=1;fontSize=16;" vertex="1" parent="RJNzWupUDamrCCXYR7qD-337">
          <mxGeometry width="49" height="30" as="geometry">
            <mxRectangle width="49" height="30" as="alternateBounds" />
          </mxGeometry>
        </mxCell>
        <mxCell id="RJNzWupUDamrCCXYR7qD-339" value="&lt;span style=&quot;font-size: 12px; text-wrap-mode: nowrap;&quot;&gt;Номер договора&lt;/span&gt;" style="shape=partialRectangle;html=1;whiteSpace=wrap;connectable=0;strokeColor=inherit;overflow=hidden;fillColor=none;top=0;left=0;bottom=0;right=0;pointerEvents=1;fontSize=16;align=left;" vertex="1" parent="RJNzWupUDamrCCXYR7qD-337">
          <mxGeometry x="49" width="132" height="30" as="geometry">
            <mxRectangle width="132" height="30" as="alternateBounds" />
          </mxGeometry>
        </mxCell>
        <mxCell id="RJNzWupUDamrCCXYR7qD-340" value="" style="shape=partialRectangle;html=1;whiteSpace=wrap;connectable=0;strokeColor=inherit;overflow=hidden;fillColor=none;top=0;left=0;bottom=0;right=0;pointerEvents=1;fontSize=16;labelBackgroundColor=default;" vertex="1" parent="RJNzWupUDamrCCXYR7qD-337">
          <mxGeometry x="181" width="59" height="30" as="geometry">
            <mxRectangle width="59" height="30" as="alternateBounds" />
          </mxGeometry>
        </mxCell>
        <mxCell id="RJNzWupUDamrCCXYR7qD-127" value="Риелторы" style="shape=table;startSize=30;container=1;collapsible=0;childLayout=tableLayout;strokeColor=default;fontSize=16;" vertex="1" parent="WIyWlLk6GJQsqaUBKTNV-1">
          <mxGeometry x="50" y="30" width="240" height="270" as="geometry" />
        </mxCell>
        <mxCell id="RJNzWupUDamrCCXYR7qD-128" value="" style="shape=tableRow;horizontal=0;startSize=0;swimlaneHead=0;swimlaneBody=0;strokeColor=inherit;top=0;left=0;bottom=0;right=0;collapsible=0;dropTarget=0;fillColor=none;points=[[0,0.5],[1,0.5]];portConstraint=eastwest;fontSize=16;" vertex="1" parent="RJNzWupUDamrCCXYR7qD-127">
          <mxGeometry y="30" width="240" height="40" as="geometry" />
        </mxCell>
        <mxCell id="RJNzWupUDamrCCXYR7qD-129" value="&lt;span style=&quot;font-size: 12px;&quot;&gt;pk&lt;/span&gt;" style="shape=partialRectangle;html=1;whiteSpace=wrap;connectable=0;strokeColor=inherit;overflow=hidden;fillColor=none;top=0;left=0;bottom=0;right=0;pointerEvents=1;fontSize=16;" vertex="1" parent="RJNzWupUDamrCCXYR7qD-128">
          <mxGeometry width="50" height="40" as="geometry">
            <mxRectangle width="50" height="40" as="alternateBounds" />
          </mxGeometry>
        </mxCell>
        <mxCell id="RJNzWupUDamrCCXYR7qD-130" value="&lt;font style=&quot;font-size: 12px;&quot;&gt;Табельный номер&lt;/font&gt;" style="shape=partialRectangle;html=1;whiteSpace=wrap;connectable=0;strokeColor=inherit;overflow=hidden;fillColor=none;top=0;left=0;bottom=0;right=0;pointerEvents=1;fontSize=16;align=left;" vertex="1" parent="RJNzWupUDamrCCXYR7qD-128">
          <mxGeometry x="50" width="137" height="40" as="geometry">
            <mxRectangle width="137" height="40" as="alternateBounds" />
          </mxGeometry>
        </mxCell>
        <mxCell id="RJNzWupUDamrCCXYR7qD-131" value="" style="shape=partialRectangle;html=1;whiteSpace=wrap;connectable=0;strokeColor=inherit;overflow=hidden;fillColor=none;top=0;left=0;bottom=0;right=0;pointerEvents=1;fontSize=16;" vertex="1" parent="RJNzWupUDamrCCXYR7qD-128">
          <mxGeometry x="187" width="53" height="40" as="geometry">
            <mxRectangle width="53" height="40" as="alternateBounds" />
          </mxGeometry>
        </mxCell>
        <mxCell id="RJNzWupUDamrCCXYR7qD-132" value="" style="shape=tableRow;horizontal=0;startSize=0;swimlaneHead=0;swimlaneBody=0;strokeColor=inherit;top=0;left=0;bottom=0;right=0;collapsible=0;dropTarget=0;fillColor=none;points=[[0,0.5],[1,0.5]];portConstraint=eastwest;fontSize=16;" vertex="1" parent="RJNzWupUDamrCCXYR7qD-127">
          <mxGeometry y="70" width="240" height="40" as="geometry" />
        </mxCell>
        <mxCell id="RJNzWupUDamrCCXYR7qD-133" value="" style="shape=partialRectangle;html=1;whiteSpace=wrap;connectable=0;strokeColor=inherit;overflow=hidden;fillColor=none;top=0;left=0;bottom=0;right=0;pointerEvents=1;fontSize=16;" vertex="1" parent="RJNzWupUDamrCCXYR7qD-132">
          <mxGeometry width="50" height="40" as="geometry">
            <mxRectangle width="50" height="40" as="alternateBounds" />
          </mxGeometry>
        </mxCell>
        <mxCell id="RJNzWupUDamrCCXYR7qD-134" value="Фамилия&amp;nbsp;" style="shape=partialRectangle;html=1;whiteSpace=wrap;connectable=0;strokeColor=inherit;overflow=hidden;fillColor=none;top=0;left=0;bottom=0;right=0;pointerEvents=1;fontSize=12;align=left;" vertex="1" parent="RJNzWupUDamrCCXYR7qD-132">
          <mxGeometry x="50" width="137" height="40" as="geometry">
            <mxRectangle width="137" height="40" as="alternateBounds" />
          </mxGeometry>
        </mxCell>
        <mxCell id="RJNzWupUDamrCCXYR7qD-135" value="" style="shape=partialRectangle;html=1;whiteSpace=wrap;connectable=0;strokeColor=inherit;overflow=hidden;fillColor=none;top=0;left=0;bottom=0;right=0;pointerEvents=1;fontSize=16;" vertex="1" parent="RJNzWupUDamrCCXYR7qD-132">
          <mxGeometry x="187" width="53" height="40" as="geometry">
            <mxRectangle width="53" height="40" as="alternateBounds" />
          </mxGeometry>
        </mxCell>
        <mxCell id="RJNzWupUDamrCCXYR7qD-136" value="" style="shape=tableRow;horizontal=0;startSize=0;swimlaneHead=0;swimlaneBody=0;strokeColor=inherit;top=0;left=0;bottom=0;right=0;collapsible=0;dropTarget=0;fillColor=none;points=[[0,0.5],[1,0.5]];portConstraint=eastwest;fontSize=16;" vertex="1" parent="RJNzWupUDamrCCXYR7qD-127">
          <mxGeometry y="110" width="240" height="40" as="geometry" />
        </mxCell>
        <mxCell id="RJNzWupUDamrCCXYR7qD-137" value="" style="shape=partialRectangle;html=1;whiteSpace=wrap;connectable=0;strokeColor=inherit;overflow=hidden;fillColor=none;top=0;left=0;bottom=0;right=0;pointerEvents=1;fontSize=16;" vertex="1" parent="RJNzWupUDamrCCXYR7qD-136">
          <mxGeometry width="50" height="40" as="geometry">
            <mxRectangle width="50" height="40" as="alternateBounds" />
          </mxGeometry>
        </mxCell>
        <mxCell id="RJNzWupUDamrCCXYR7qD-138" value="Имя" style="shape=partialRectangle;html=1;whiteSpace=wrap;connectable=0;strokeColor=inherit;overflow=hidden;fillColor=none;top=0;left=0;bottom=0;right=0;pointerEvents=1;fontSize=12;align=left;" vertex="1" parent="RJNzWupUDamrCCXYR7qD-136">
          <mxGeometry x="50" width="137" height="40" as="geometry">
            <mxRectangle width="137" height="40" as="alternateBounds" />
          </mxGeometry>
        </mxCell>
        <mxCell id="RJNzWupUDamrCCXYR7qD-139" value="" style="shape=partialRectangle;html=1;whiteSpace=wrap;connectable=0;strokeColor=inherit;overflow=hidden;fillColor=none;top=0;left=0;bottom=0;right=0;pointerEvents=1;fontSize=16;" vertex="1" parent="RJNzWupUDamrCCXYR7qD-136">
          <mxGeometry x="187" width="53" height="40" as="geometry">
            <mxRectangle width="53" height="40" as="alternateBounds" />
          </mxGeometry>
        </mxCell>
        <mxCell id="RJNzWupUDamrCCXYR7qD-140" value="" style="shape=tableRow;horizontal=0;startSize=0;swimlaneHead=0;swimlaneBody=0;strokeColor=inherit;top=0;left=0;bottom=0;right=0;collapsible=0;dropTarget=0;fillColor=none;points=[[0,0.5],[1,0.5]];portConstraint=eastwest;fontSize=16;" vertex="1" parent="RJNzWupUDamrCCXYR7qD-127">
          <mxGeometry y="150" width="240" height="40" as="geometry" />
        </mxCell>
        <mxCell id="RJNzWupUDamrCCXYR7qD-141" value="" style="shape=partialRectangle;html=1;whiteSpace=wrap;connectable=0;strokeColor=inherit;overflow=hidden;fillColor=none;top=0;left=0;bottom=0;right=0;pointerEvents=1;fontSize=16;" vertex="1" parent="RJNzWupUDamrCCXYR7qD-140">
          <mxGeometry width="50" height="40" as="geometry">
            <mxRectangle width="50" height="40" as="alternateBounds" />
          </mxGeometry>
        </mxCell>
        <mxCell id="RJNzWupUDamrCCXYR7qD-142" value="Отчество" style="shape=partialRectangle;html=1;whiteSpace=wrap;connectable=0;strokeColor=inherit;overflow=hidden;fillColor=none;top=0;left=0;bottom=0;right=0;pointerEvents=1;fontSize=12;align=left;" vertex="1" parent="RJNzWupUDamrCCXYR7qD-140">
          <mxGeometry x="50" width="137" height="40" as="geometry">
            <mxRectangle width="137" height="40" as="alternateBounds" />
          </mxGeometry>
        </mxCell>
        <mxCell id="RJNzWupUDamrCCXYR7qD-143" value="" style="shape=partialRectangle;html=1;whiteSpace=wrap;connectable=0;strokeColor=inherit;overflow=hidden;fillColor=none;top=0;left=0;bottom=0;right=0;pointerEvents=1;fontSize=16;" vertex="1" parent="RJNzWupUDamrCCXYR7qD-140">
          <mxGeometry x="187" width="53" height="40" as="geometry">
            <mxRectangle width="53" height="40" as="alternateBounds" />
          </mxGeometry>
        </mxCell>
        <mxCell id="RJNzWupUDamrCCXYR7qD-144" value="" style="shape=tableRow;horizontal=0;startSize=0;swimlaneHead=0;swimlaneBody=0;strokeColor=inherit;top=0;left=0;bottom=0;right=0;collapsible=0;dropTarget=0;fillColor=none;points=[[0,0.5],[1,0.5]];portConstraint=eastwest;fontSize=16;" vertex="1" parent="RJNzWupUDamrCCXYR7qD-127">
          <mxGeometry y="190" width="240" height="40" as="geometry" />
        </mxCell>
        <mxCell id="RJNzWupUDamrCCXYR7qD-145" value="" style="shape=partialRectangle;html=1;whiteSpace=wrap;connectable=0;strokeColor=inherit;overflow=hidden;fillColor=none;top=0;left=0;bottom=0;right=0;pointerEvents=1;fontSize=16;" vertex="1" parent="RJNzWupUDamrCCXYR7qD-144">
          <mxGeometry width="50" height="40" as="geometry">
            <mxRectangle width="50" height="40" as="alternateBounds" />
          </mxGeometry>
        </mxCell>
        <mxCell id="RJNzWupUDamrCCXYR7qD-146" value="Должность" style="shape=partialRectangle;html=1;whiteSpace=wrap;connectable=0;strokeColor=inherit;overflow=hidden;fillColor=none;top=0;left=0;bottom=0;right=0;pointerEvents=1;fontSize=12;align=left;" vertex="1" parent="RJNzWupUDamrCCXYR7qD-144">
          <mxGeometry x="50" width="137" height="40" as="geometry">
            <mxRectangle width="137" height="40" as="alternateBounds" />
          </mxGeometry>
        </mxCell>
        <mxCell id="RJNzWupUDamrCCXYR7qD-147" value="" style="shape=partialRectangle;html=1;whiteSpace=wrap;connectable=0;strokeColor=inherit;overflow=hidden;fillColor=none;top=0;left=0;bottom=0;right=0;pointerEvents=1;fontSize=16;" vertex="1" parent="RJNzWupUDamrCCXYR7qD-144">
          <mxGeometry x="187" width="53" height="40" as="geometry">
            <mxRectangle width="53" height="40" as="alternateBounds" />
          </mxGeometry>
        </mxCell>
        <mxCell id="RJNzWupUDamrCCXYR7qD-148" value="" style="shape=tableRow;horizontal=0;startSize=0;swimlaneHead=0;swimlaneBody=0;strokeColor=inherit;top=0;left=0;bottom=0;right=0;collapsible=0;dropTarget=0;fillColor=none;points=[[0,0.5],[1,0.5]];portConstraint=eastwest;fontSize=16;" vertex="1" parent="RJNzWupUDamrCCXYR7qD-127">
          <mxGeometry y="230" width="240" height="40" as="geometry" />
        </mxCell>
        <mxCell id="RJNzWupUDamrCCXYR7qD-149" value="" style="shape=partialRectangle;html=1;whiteSpace=wrap;connectable=0;strokeColor=inherit;overflow=hidden;fillColor=none;top=0;left=0;bottom=0;right=0;pointerEvents=1;fontSize=16;" vertex="1" parent="RJNzWupUDamrCCXYR7qD-148">
          <mxGeometry width="50" height="40" as="geometry">
            <mxRectangle width="50" height="40" as="alternateBounds" />
          </mxGeometry>
        </mxCell>
        <mxCell id="RJNzWupUDamrCCXYR7qD-150" value="Дата рождения" style="shape=partialRectangle;html=1;whiteSpace=wrap;connectable=0;strokeColor=inherit;overflow=hidden;fillColor=none;top=0;left=0;bottom=0;right=0;pointerEvents=1;fontSize=12;align=left;" vertex="1" parent="RJNzWupUDamrCCXYR7qD-148">
          <mxGeometry x="50" width="137" height="40" as="geometry">
            <mxRectangle width="137" height="40" as="alternateBounds" />
          </mxGeometry>
        </mxCell>
        <mxCell id="RJNzWupUDamrCCXYR7qD-151" value="" style="shape=partialRectangle;html=1;whiteSpace=wrap;connectable=0;strokeColor=inherit;overflow=hidden;fillColor=none;top=0;left=0;bottom=0;right=0;pointerEvents=1;fontSize=16;" vertex="1" parent="RJNzWupUDamrCCXYR7qD-148">
          <mxGeometry x="187" width="53" height="40" as="geometry">
            <mxRectangle width="53" height="40" as="alternateBounds" />
          </mxGeometry>
        </mxCell>
        <mxCell id="RJNzWupUDamrCCXYR7qD-163" value="Квартиры" style="shape=table;startSize=30;container=1;collapsible=0;childLayout=tableLayout;strokeColor=default;fontSize=16;" vertex="1" parent="WIyWlLk6GJQsqaUBKTNV-1">
          <mxGeometry x="640" y="80" width="240" height="390" as="geometry" />
        </mxCell>
        <mxCell id="RJNzWupUDamrCCXYR7qD-164" value="" style="shape=tableRow;horizontal=0;startSize=0;swimlaneHead=0;swimlaneBody=0;strokeColor=inherit;top=0;left=0;bottom=0;right=0;collapsible=0;dropTarget=0;fillColor=none;points=[[0,0.5],[1,0.5]];portConstraint=eastwest;fontSize=16;" vertex="1" parent="RJNzWupUDamrCCXYR7qD-163">
          <mxGeometry y="30" width="240" height="40" as="geometry" />
        </mxCell>
        <mxCell id="RJNzWupUDamrCCXYR7qD-165" value="&lt;span style=&quot;font-size: 12px;&quot;&gt;pk&lt;/span&gt;" style="shape=partialRectangle;html=1;whiteSpace=wrap;connectable=0;strokeColor=inherit;overflow=hidden;fillColor=none;top=0;left=0;bottom=0;right=0;pointerEvents=1;fontSize=16;" vertex="1" parent="RJNzWupUDamrCCXYR7qD-164">
          <mxGeometry width="50" height="40" as="geometry">
            <mxRectangle width="50" height="40" as="alternateBounds" />
          </mxGeometry>
        </mxCell>
        <mxCell id="RJNzWupUDamrCCXYR7qD-166" value="Код квартиры" style="shape=partialRectangle;html=1;whiteSpace=wrap;connectable=0;strokeColor=inherit;overflow=hidden;fillColor=none;top=0;left=0;bottom=0;right=0;pointerEvents=1;fontSize=12;align=left;" vertex="1" parent="RJNzWupUDamrCCXYR7qD-164">
          <mxGeometry x="50" width="130" height="40" as="geometry">
            <mxRectangle width="130" height="40" as="alternateBounds" />
          </mxGeometry>
        </mxCell>
        <mxCell id="RJNzWupUDamrCCXYR7qD-167" value="" style="shape=partialRectangle;html=1;whiteSpace=wrap;connectable=0;strokeColor=inherit;overflow=hidden;fillColor=none;top=0;left=0;bottom=0;right=0;pointerEvents=1;fontSize=16;" vertex="1" parent="RJNzWupUDamrCCXYR7qD-164">
          <mxGeometry x="180" width="60" height="40" as="geometry">
            <mxRectangle width="60" height="40" as="alternateBounds" />
          </mxGeometry>
        </mxCell>
        <mxCell id="RJNzWupUDamrCCXYR7qD-172" value="" style="shape=tableRow;horizontal=0;startSize=0;swimlaneHead=0;swimlaneBody=0;strokeColor=inherit;top=0;left=0;bottom=0;right=0;collapsible=0;dropTarget=0;fillColor=none;points=[[0,0.5],[1,0.5]];portConstraint=eastwest;fontSize=16;" vertex="1" parent="RJNzWupUDamrCCXYR7qD-163">
          <mxGeometry y="70" width="240" height="40" as="geometry" />
        </mxCell>
        <mxCell id="RJNzWupUDamrCCXYR7qD-173" value="" style="shape=partialRectangle;html=1;whiteSpace=wrap;connectable=0;strokeColor=inherit;overflow=hidden;fillColor=none;top=0;left=0;bottom=0;right=0;pointerEvents=1;fontSize=16;" vertex="1" parent="RJNzWupUDamrCCXYR7qD-172">
          <mxGeometry width="50" height="40" as="geometry">
            <mxRectangle width="50" height="40" as="alternateBounds" />
          </mxGeometry>
        </mxCell>
        <mxCell id="RJNzWupUDamrCCXYR7qD-174" value="Количество комнат" style="shape=partialRectangle;html=1;whiteSpace=wrap;connectable=0;strokeColor=inherit;overflow=hidden;fillColor=none;top=0;left=0;bottom=0;right=0;pointerEvents=1;fontSize=12;align=left;" vertex="1" parent="RJNzWupUDamrCCXYR7qD-172">
          <mxGeometry x="50" width="130" height="40" as="geometry">
            <mxRectangle width="130" height="40" as="alternateBounds" />
          </mxGeometry>
        </mxCell>
        <mxCell id="RJNzWupUDamrCCXYR7qD-175" value="" style="shape=partialRectangle;html=1;whiteSpace=wrap;connectable=0;strokeColor=inherit;overflow=hidden;fillColor=none;top=0;left=0;bottom=0;right=0;pointerEvents=1;fontSize=16;" vertex="1" parent="RJNzWupUDamrCCXYR7qD-172">
          <mxGeometry x="180" width="60" height="40" as="geometry">
            <mxRectangle width="60" height="40" as="alternateBounds" />
          </mxGeometry>
        </mxCell>
        <mxCell id="RJNzWupUDamrCCXYR7qD-176" value="" style="shape=tableRow;horizontal=0;startSize=0;swimlaneHead=0;swimlaneBody=0;strokeColor=inherit;top=0;left=0;bottom=0;right=0;collapsible=0;dropTarget=0;fillColor=none;points=[[0,0.5],[1,0.5]];portConstraint=eastwest;fontSize=16;" vertex="1" parent="RJNzWupUDamrCCXYR7qD-163">
          <mxGeometry y="110" width="240" height="40" as="geometry" />
        </mxCell>
        <mxCell id="RJNzWupUDamrCCXYR7qD-177" value="" style="shape=partialRectangle;html=1;whiteSpace=wrap;connectable=0;strokeColor=inherit;overflow=hidden;fillColor=none;top=0;left=0;bottom=0;right=0;pointerEvents=1;fontSize=16;" vertex="1" parent="RJNzWupUDamrCCXYR7qD-176">
          <mxGeometry width="50" height="40" as="geometry">
            <mxRectangle width="50" height="40" as="alternateBounds" />
          </mxGeometry>
        </mxCell>
        <mxCell id="RJNzWupUDamrCCXYR7qD-178" value="Площадь" style="shape=partialRectangle;html=1;whiteSpace=wrap;connectable=0;strokeColor=inherit;overflow=hidden;fillColor=none;top=0;left=0;bottom=0;right=0;pointerEvents=1;fontSize=12;align=left;" vertex="1" parent="RJNzWupUDamrCCXYR7qD-176">
          <mxGeometry x="50" width="130" height="40" as="geometry">
            <mxRectangle width="130" height="40" as="alternateBounds" />
          </mxGeometry>
        </mxCell>
        <mxCell id="RJNzWupUDamrCCXYR7qD-179" value="" style="shape=partialRectangle;html=1;whiteSpace=wrap;connectable=0;strokeColor=inherit;overflow=hidden;fillColor=none;top=0;left=0;bottom=0;right=0;pointerEvents=1;fontSize=16;" vertex="1" parent="RJNzWupUDamrCCXYR7qD-176">
          <mxGeometry x="180" width="60" height="40" as="geometry">
            <mxRectangle width="60" height="40" as="alternateBounds" />
          </mxGeometry>
        </mxCell>
        <mxCell id="RJNzWupUDamrCCXYR7qD-180" value="" style="shape=tableRow;horizontal=0;startSize=0;swimlaneHead=0;swimlaneBody=0;strokeColor=inherit;top=0;left=0;bottom=0;right=0;collapsible=0;dropTarget=0;fillColor=none;points=[[0,0.5],[1,0.5]];portConstraint=eastwest;fontSize=16;" vertex="1" parent="RJNzWupUDamrCCXYR7qD-163">
          <mxGeometry y="150" width="240" height="40" as="geometry" />
        </mxCell>
        <mxCell id="RJNzWupUDamrCCXYR7qD-181" value="" style="shape=partialRectangle;html=1;whiteSpace=wrap;connectable=0;strokeColor=inherit;overflow=hidden;fillColor=none;top=0;left=0;bottom=0;right=0;pointerEvents=1;fontSize=16;" vertex="1" parent="RJNzWupUDamrCCXYR7qD-180">
          <mxGeometry width="50" height="40" as="geometry">
            <mxRectangle width="50" height="40" as="alternateBounds" />
          </mxGeometry>
        </mxCell>
        <mxCell id="RJNzWupUDamrCCXYR7qD-182" value="Описание" style="shape=partialRectangle;html=1;whiteSpace=wrap;connectable=0;strokeColor=inherit;overflow=hidden;fillColor=none;top=0;left=0;bottom=0;right=0;pointerEvents=1;fontSize=12;align=left;" vertex="1" parent="RJNzWupUDamrCCXYR7qD-180">
          <mxGeometry x="50" width="130" height="40" as="geometry">
            <mxRectangle width="130" height="40" as="alternateBounds" />
          </mxGeometry>
        </mxCell>
        <mxCell id="RJNzWupUDamrCCXYR7qD-183" value="" style="shape=partialRectangle;html=1;whiteSpace=wrap;connectable=0;strokeColor=inherit;overflow=hidden;fillColor=none;top=0;left=0;bottom=0;right=0;pointerEvents=1;fontSize=16;" vertex="1" parent="RJNzWupUDamrCCXYR7qD-180">
          <mxGeometry x="180" width="60" height="40" as="geometry">
            <mxRectangle width="60" height="40" as="alternateBounds" />
          </mxGeometry>
        </mxCell>
        <mxCell id="RJNzWupUDamrCCXYR7qD-268" value="" style="shape=tableRow;horizontal=0;startSize=0;swimlaneHead=0;swimlaneBody=0;strokeColor=inherit;top=0;left=0;bottom=0;right=0;collapsible=0;dropTarget=0;fillColor=none;points=[[0,0.5],[1,0.5]];portConstraint=eastwest;fontSize=16;" vertex="1" parent="RJNzWupUDamrCCXYR7qD-163">
          <mxGeometry y="190" width="240" height="40" as="geometry" />
        </mxCell>
        <mxCell id="RJNzWupUDamrCCXYR7qD-269" value="" style="shape=partialRectangle;html=1;whiteSpace=wrap;connectable=0;strokeColor=inherit;overflow=hidden;fillColor=none;top=0;left=0;bottom=0;right=0;pointerEvents=1;fontSize=16;" vertex="1" parent="RJNzWupUDamrCCXYR7qD-268">
          <mxGeometry width="50" height="40" as="geometry">
            <mxRectangle width="50" height="40" as="alternateBounds" />
          </mxGeometry>
        </mxCell>
        <mxCell id="RJNzWupUDamrCCXYR7qD-270" value="Область" style="shape=partialRectangle;html=1;whiteSpace=wrap;connectable=0;strokeColor=inherit;overflow=hidden;fillColor=none;top=0;left=0;bottom=0;right=0;pointerEvents=1;fontSize=12;align=left;" vertex="1" parent="RJNzWupUDamrCCXYR7qD-268">
          <mxGeometry x="50" width="130" height="40" as="geometry">
            <mxRectangle width="130" height="40" as="alternateBounds" />
          </mxGeometry>
        </mxCell>
        <mxCell id="RJNzWupUDamrCCXYR7qD-271" value="" style="shape=partialRectangle;html=1;whiteSpace=wrap;connectable=0;strokeColor=inherit;overflow=hidden;fillColor=none;top=0;left=0;bottom=0;right=0;pointerEvents=1;fontSize=16;" vertex="1" parent="RJNzWupUDamrCCXYR7qD-268">
          <mxGeometry x="180" width="60" height="40" as="geometry">
            <mxRectangle width="60" height="40" as="alternateBounds" />
          </mxGeometry>
        </mxCell>
        <mxCell id="RJNzWupUDamrCCXYR7qD-272" value="" style="shape=tableRow;horizontal=0;startSize=0;swimlaneHead=0;swimlaneBody=0;strokeColor=inherit;top=0;left=0;bottom=0;right=0;collapsible=0;dropTarget=0;fillColor=none;points=[[0,0.5],[1,0.5]];portConstraint=eastwest;fontSize=16;" vertex="1" parent="RJNzWupUDamrCCXYR7qD-163">
          <mxGeometry y="230" width="240" height="40" as="geometry" />
        </mxCell>
        <mxCell id="RJNzWupUDamrCCXYR7qD-273" value="" style="shape=partialRectangle;html=1;whiteSpace=wrap;connectable=0;strokeColor=inherit;overflow=hidden;fillColor=none;top=0;left=0;bottom=0;right=0;pointerEvents=1;fontSize=16;" vertex="1" parent="RJNzWupUDamrCCXYR7qD-272">
          <mxGeometry width="50" height="40" as="geometry">
            <mxRectangle width="50" height="40" as="alternateBounds" />
          </mxGeometry>
        </mxCell>
        <mxCell id="RJNzWupUDamrCCXYR7qD-274" value="Населенный пункт" style="shape=partialRectangle;html=1;whiteSpace=wrap;connectable=0;strokeColor=inherit;overflow=hidden;fillColor=none;top=0;left=0;bottom=0;right=0;pointerEvents=1;fontSize=12;align=left;" vertex="1" parent="RJNzWupUDamrCCXYR7qD-272">
          <mxGeometry x="50" width="130" height="40" as="geometry">
            <mxRectangle width="130" height="40" as="alternateBounds" />
          </mxGeometry>
        </mxCell>
        <mxCell id="RJNzWupUDamrCCXYR7qD-275" value="" style="shape=partialRectangle;html=1;whiteSpace=wrap;connectable=0;strokeColor=inherit;overflow=hidden;fillColor=none;top=0;left=0;bottom=0;right=0;pointerEvents=1;fontSize=16;" vertex="1" parent="RJNzWupUDamrCCXYR7qD-272">
          <mxGeometry x="180" width="60" height="40" as="geometry">
            <mxRectangle width="60" height="40" as="alternateBounds" />
          </mxGeometry>
        </mxCell>
        <mxCell id="RJNzWupUDamrCCXYR7qD-276" value="" style="shape=tableRow;horizontal=0;startSize=0;swimlaneHead=0;swimlaneBody=0;strokeColor=inherit;top=0;left=0;bottom=0;right=0;collapsible=0;dropTarget=0;fillColor=none;points=[[0,0.5],[1,0.5]];portConstraint=eastwest;fontSize=16;" vertex="1" parent="RJNzWupUDamrCCXYR7qD-163">
          <mxGeometry y="270" width="240" height="40" as="geometry" />
        </mxCell>
        <mxCell id="RJNzWupUDamrCCXYR7qD-277" value="" style="shape=partialRectangle;html=1;whiteSpace=wrap;connectable=0;strokeColor=inherit;overflow=hidden;fillColor=none;top=0;left=0;bottom=0;right=0;pointerEvents=1;fontSize=16;" vertex="1" parent="RJNzWupUDamrCCXYR7qD-276">
          <mxGeometry width="50" height="40" as="geometry">
            <mxRectangle width="50" height="40" as="alternateBounds" />
          </mxGeometry>
        </mxCell>
        <mxCell id="RJNzWupUDamrCCXYR7qD-278" value="Улица" style="shape=partialRectangle;html=1;whiteSpace=wrap;connectable=0;strokeColor=inherit;overflow=hidden;fillColor=none;top=0;left=0;bottom=0;right=0;pointerEvents=1;fontSize=12;align=left;" vertex="1" parent="RJNzWupUDamrCCXYR7qD-276">
          <mxGeometry x="50" width="130" height="40" as="geometry">
            <mxRectangle width="130" height="40" as="alternateBounds" />
          </mxGeometry>
        </mxCell>
        <mxCell id="RJNzWupUDamrCCXYR7qD-279" value="" style="shape=partialRectangle;html=1;whiteSpace=wrap;connectable=0;strokeColor=inherit;overflow=hidden;fillColor=none;top=0;left=0;bottom=0;right=0;pointerEvents=1;fontSize=16;" vertex="1" parent="RJNzWupUDamrCCXYR7qD-276">
          <mxGeometry x="180" width="60" height="40" as="geometry">
            <mxRectangle width="60" height="40" as="alternateBounds" />
          </mxGeometry>
        </mxCell>
        <mxCell id="RJNzWupUDamrCCXYR7qD-280" value="" style="shape=tableRow;horizontal=0;startSize=0;swimlaneHead=0;swimlaneBody=0;strokeColor=inherit;top=0;left=0;bottom=0;right=0;collapsible=0;dropTarget=0;fillColor=none;points=[[0,0.5],[1,0.5]];portConstraint=eastwest;fontSize=16;" vertex="1" parent="RJNzWupUDamrCCXYR7qD-163">
          <mxGeometry y="310" width="240" height="40" as="geometry" />
        </mxCell>
        <mxCell id="RJNzWupUDamrCCXYR7qD-281" value="" style="shape=partialRectangle;html=1;whiteSpace=wrap;connectable=0;strokeColor=inherit;overflow=hidden;fillColor=none;top=0;left=0;bottom=0;right=0;pointerEvents=1;fontSize=16;" vertex="1" parent="RJNzWupUDamrCCXYR7qD-280">
          <mxGeometry width="50" height="40" as="geometry">
            <mxRectangle width="50" height="40" as="alternateBounds" />
          </mxGeometry>
        </mxCell>
        <mxCell id="RJNzWupUDamrCCXYR7qD-282" value="Номер квартиры" style="shape=partialRectangle;html=1;whiteSpace=wrap;connectable=0;strokeColor=inherit;overflow=hidden;fillColor=none;top=0;left=0;bottom=0;right=0;pointerEvents=1;fontSize=12;align=left;" vertex="1" parent="RJNzWupUDamrCCXYR7qD-280">
          <mxGeometry x="50" width="130" height="40" as="geometry">
            <mxRectangle width="130" height="40" as="alternateBounds" />
          </mxGeometry>
        </mxCell>
        <mxCell id="RJNzWupUDamrCCXYR7qD-283" value="" style="shape=partialRectangle;html=1;whiteSpace=wrap;connectable=0;strokeColor=inherit;overflow=hidden;fillColor=none;top=0;left=0;bottom=0;right=0;pointerEvents=1;fontSize=16;" vertex="1" parent="RJNzWupUDamrCCXYR7qD-280">
          <mxGeometry x="180" width="60" height="40" as="geometry">
            <mxRectangle width="60" height="40" as="alternateBounds" />
          </mxGeometry>
        </mxCell>
        <mxCell id="RJNzWupUDamrCCXYR7qD-321" value="" style="shape=tableRow;horizontal=0;startSize=0;swimlaneHead=0;swimlaneBody=0;strokeColor=inherit;top=0;left=0;bottom=0;right=0;collapsible=0;dropTarget=0;fillColor=none;points=[[0,0.5],[1,0.5]];portConstraint=eastwest;fontSize=16;" vertex="1" parent="RJNzWupUDamrCCXYR7qD-163">
          <mxGeometry y="350" width="240" height="40" as="geometry" />
        </mxCell>
        <mxCell id="RJNzWupUDamrCCXYR7qD-322" value="&lt;font style=&quot;font-size: 12px;&quot;&gt;fk&lt;/font&gt;" style="shape=partialRectangle;html=1;whiteSpace=wrap;connectable=0;strokeColor=inherit;overflow=hidden;fillColor=none;top=0;left=0;bottom=0;right=0;pointerEvents=1;fontSize=16;" vertex="1" parent="RJNzWupUDamrCCXYR7qD-321">
          <mxGeometry width="50" height="40" as="geometry">
            <mxRectangle width="50" height="40" as="alternateBounds" />
          </mxGeometry>
        </mxCell>
        <mxCell id="RJNzWupUDamrCCXYR7qD-323" value="Табельный номер" style="shape=partialRectangle;html=1;whiteSpace=wrap;connectable=0;strokeColor=inherit;overflow=hidden;fillColor=none;top=0;left=0;bottom=0;right=0;pointerEvents=1;fontSize=12;align=left;" vertex="1" parent="RJNzWupUDamrCCXYR7qD-321">
          <mxGeometry x="50" width="130" height="40" as="geometry">
            <mxRectangle width="130" height="40" as="alternateBounds" />
          </mxGeometry>
        </mxCell>
        <mxCell id="RJNzWupUDamrCCXYR7qD-324" value="" style="shape=partialRectangle;html=1;whiteSpace=wrap;connectable=0;strokeColor=inherit;overflow=hidden;fillColor=none;top=0;left=0;bottom=0;right=0;pointerEvents=1;fontSize=16;" vertex="1" parent="RJNzWupUDamrCCXYR7qD-321">
          <mxGeometry x="180" width="60" height="40" as="geometry">
            <mxRectangle width="60" height="40" as="alternateBounds" />
          </mxGeometry>
        </mxCell>
        <mxCell id="RJNzWupUDamrCCXYR7qD-184" value="Сделки" style="shape=table;startSize=30;container=1;collapsible=0;childLayout=tableLayout;strokeColor=default;fontSize=16;" vertex="1" parent="WIyWlLk6GJQsqaUBKTNV-1">
          <mxGeometry x="300" y="410" width="240" height="390" as="geometry" />
        </mxCell>
        <mxCell id="RJNzWupUDamrCCXYR7qD-185" value="" style="shape=tableRow;horizontal=0;startSize=0;swimlaneHead=0;swimlaneBody=0;strokeColor=inherit;top=0;left=0;bottom=0;right=0;collapsible=0;dropTarget=0;fillColor=none;points=[[0,0.5],[1,0.5]];portConstraint=eastwest;fontSize=16;" vertex="1" parent="RJNzWupUDamrCCXYR7qD-184">
          <mxGeometry y="30" width="240" height="40" as="geometry" />
        </mxCell>
        <mxCell id="RJNzWupUDamrCCXYR7qD-186" value="&lt;span style=&quot;font-size: 12px;&quot;&gt;pk&lt;/span&gt;" style="shape=partialRectangle;html=1;whiteSpace=wrap;connectable=0;strokeColor=inherit;overflow=hidden;fillColor=none;top=0;left=0;bottom=0;right=0;pointerEvents=1;fontSize=16;" vertex="1" parent="RJNzWupUDamrCCXYR7qD-185">
          <mxGeometry width="50" height="40" as="geometry">
            <mxRectangle width="50" height="40" as="alternateBounds" />
          </mxGeometry>
        </mxCell>
        <mxCell id="RJNzWupUDamrCCXYR7qD-187" value="Номер договора" style="shape=partialRectangle;html=1;whiteSpace=wrap;connectable=0;strokeColor=inherit;overflow=hidden;fillColor=none;top=0;left=0;bottom=0;right=0;pointerEvents=1;fontSize=12;align=left;" vertex="1" parent="RJNzWupUDamrCCXYR7qD-185">
          <mxGeometry x="50" width="130" height="40" as="geometry">
            <mxRectangle width="130" height="40" as="alternateBounds" />
          </mxGeometry>
        </mxCell>
        <mxCell id="RJNzWupUDamrCCXYR7qD-188" value="" style="shape=partialRectangle;html=1;whiteSpace=wrap;connectable=0;strokeColor=inherit;overflow=hidden;fillColor=none;top=0;left=0;bottom=0;right=0;pointerEvents=1;fontSize=16;" vertex="1" parent="RJNzWupUDamrCCXYR7qD-185">
          <mxGeometry x="180" width="60" height="40" as="geometry">
            <mxRectangle width="60" height="40" as="alternateBounds" />
          </mxGeometry>
        </mxCell>
        <mxCell id="RJNzWupUDamrCCXYR7qD-189" value="" style="shape=tableRow;horizontal=0;startSize=0;swimlaneHead=0;swimlaneBody=0;strokeColor=inherit;top=0;left=0;bottom=0;right=0;collapsible=0;dropTarget=0;fillColor=none;points=[[0,0.5],[1,0.5]];portConstraint=eastwest;fontSize=16;" vertex="1" parent="RJNzWupUDamrCCXYR7qD-184">
          <mxGeometry y="70" width="240" height="40" as="geometry" />
        </mxCell>
        <mxCell id="RJNzWupUDamrCCXYR7qD-190" value="fk" style="shape=partialRectangle;html=1;whiteSpace=wrap;connectable=0;strokeColor=inherit;overflow=hidden;fillColor=none;top=0;left=0;bottom=0;right=0;pointerEvents=1;fontSize=16;" vertex="1" parent="RJNzWupUDamrCCXYR7qD-189">
          <mxGeometry width="50" height="40" as="geometry">
            <mxRectangle width="50" height="40" as="alternateBounds" />
          </mxGeometry>
        </mxCell>
        <mxCell id="RJNzWupUDamrCCXYR7qD-191" value="Код квартиры" style="shape=partialRectangle;html=1;whiteSpace=wrap;connectable=0;strokeColor=inherit;overflow=hidden;fillColor=none;top=0;left=0;bottom=0;right=0;pointerEvents=1;fontSize=12;align=left;" vertex="1" parent="RJNzWupUDamrCCXYR7qD-189">
          <mxGeometry x="50" width="130" height="40" as="geometry">
            <mxRectangle width="130" height="40" as="alternateBounds" />
          </mxGeometry>
        </mxCell>
        <mxCell id="RJNzWupUDamrCCXYR7qD-192" value="" style="shape=partialRectangle;html=1;whiteSpace=wrap;connectable=0;strokeColor=inherit;overflow=hidden;fillColor=none;top=0;left=0;bottom=0;right=0;pointerEvents=1;fontSize=16;" vertex="1" parent="RJNzWupUDamrCCXYR7qD-189">
          <mxGeometry x="180" width="60" height="40" as="geometry">
            <mxRectangle width="60" height="40" as="alternateBounds" />
          </mxGeometry>
        </mxCell>
        <mxCell id="RJNzWupUDamrCCXYR7qD-193" value="" style="shape=tableRow;horizontal=0;startSize=0;swimlaneHead=0;swimlaneBody=0;strokeColor=inherit;top=0;left=0;bottom=0;right=0;collapsible=0;dropTarget=0;fillColor=none;points=[[0,0.5],[1,0.5]];portConstraint=eastwest;fontSize=16;" vertex="1" parent="RJNzWupUDamrCCXYR7qD-184">
          <mxGeometry y="110" width="240" height="40" as="geometry" />
        </mxCell>
        <mxCell id="RJNzWupUDamrCCXYR7qD-194" value="fk" style="shape=partialRectangle;html=1;whiteSpace=wrap;connectable=0;strokeColor=inherit;overflow=hidden;fillColor=none;top=0;left=0;bottom=0;right=0;pointerEvents=1;fontSize=16;" vertex="1" parent="RJNzWupUDamrCCXYR7qD-193">
          <mxGeometry width="50" height="40" as="geometry">
            <mxRectangle width="50" height="40" as="alternateBounds" />
          </mxGeometry>
        </mxCell>
        <mxCell id="RJNzWupUDamrCCXYR7qD-195" value="&lt;span style=&quot;text-wrap-mode: nowrap;&quot;&gt;id клиента&lt;/span&gt;" style="shape=partialRectangle;html=1;whiteSpace=wrap;connectable=0;strokeColor=inherit;overflow=hidden;fillColor=none;top=0;left=0;bottom=0;right=0;pointerEvents=1;fontSize=12;align=left;" vertex="1" parent="RJNzWupUDamrCCXYR7qD-193">
          <mxGeometry x="50" width="130" height="40" as="geometry">
            <mxRectangle width="130" height="40" as="alternateBounds" />
          </mxGeometry>
        </mxCell>
        <mxCell id="RJNzWupUDamrCCXYR7qD-196" value="" style="shape=partialRectangle;html=1;whiteSpace=wrap;connectable=0;strokeColor=inherit;overflow=hidden;fillColor=none;top=0;left=0;bottom=0;right=0;pointerEvents=1;fontSize=16;" vertex="1" parent="RJNzWupUDamrCCXYR7qD-193">
          <mxGeometry x="180" width="60" height="40" as="geometry">
            <mxRectangle width="60" height="40" as="alternateBounds" />
          </mxGeometry>
        </mxCell>
        <mxCell id="RJNzWupUDamrCCXYR7qD-197" value="" style="shape=tableRow;horizontal=0;startSize=0;swimlaneHead=0;swimlaneBody=0;strokeColor=inherit;top=0;left=0;bottom=0;right=0;collapsible=0;dropTarget=0;fillColor=none;points=[[0,0.5],[1,0.5]];portConstraint=eastwest;fontSize=16;" vertex="1" parent="RJNzWupUDamrCCXYR7qD-184">
          <mxGeometry y="150" width="240" height="40" as="geometry" />
        </mxCell>
        <mxCell id="RJNzWupUDamrCCXYR7qD-198" value="" style="shape=partialRectangle;html=1;whiteSpace=wrap;connectable=0;strokeColor=inherit;overflow=hidden;fillColor=none;top=0;left=0;bottom=0;right=0;pointerEvents=1;fontSize=16;" vertex="1" parent="RJNzWupUDamrCCXYR7qD-197">
          <mxGeometry width="50" height="40" as="geometry">
            <mxRectangle width="50" height="40" as="alternateBounds" />
          </mxGeometry>
        </mxCell>
        <mxCell id="RJNzWupUDamrCCXYR7qD-199" value="&lt;span style=&quot;text-wrap-mode: nowrap;&quot;&gt;Тип сделки&lt;/span&gt;" style="shape=partialRectangle;html=1;whiteSpace=wrap;connectable=0;strokeColor=inherit;overflow=hidden;fillColor=none;top=0;left=0;bottom=0;right=0;pointerEvents=1;fontSize=12;align=left;" vertex="1" parent="RJNzWupUDamrCCXYR7qD-197">
          <mxGeometry x="50" width="130" height="40" as="geometry">
            <mxRectangle width="130" height="40" as="alternateBounds" />
          </mxGeometry>
        </mxCell>
        <mxCell id="RJNzWupUDamrCCXYR7qD-200" value="" style="shape=partialRectangle;html=1;whiteSpace=wrap;connectable=0;strokeColor=inherit;overflow=hidden;fillColor=none;top=0;left=0;bottom=0;right=0;pointerEvents=1;fontSize=16;" vertex="1" parent="RJNzWupUDamrCCXYR7qD-197">
          <mxGeometry x="180" width="60" height="40" as="geometry">
            <mxRectangle width="60" height="40" as="alternateBounds" />
          </mxGeometry>
        </mxCell>
        <mxCell id="RJNzWupUDamrCCXYR7qD-201" value="" style="shape=tableRow;horizontal=0;startSize=0;swimlaneHead=0;swimlaneBody=0;strokeColor=inherit;top=0;left=0;bottom=0;right=0;collapsible=0;dropTarget=0;fillColor=none;points=[[0,0.5],[1,0.5]];portConstraint=eastwest;fontSize=16;" vertex="1" parent="RJNzWupUDamrCCXYR7qD-184">
          <mxGeometry y="190" width="240" height="40" as="geometry" />
        </mxCell>
        <mxCell id="RJNzWupUDamrCCXYR7qD-202" value="" style="shape=partialRectangle;html=1;whiteSpace=wrap;connectable=0;strokeColor=inherit;overflow=hidden;fillColor=none;top=0;left=0;bottom=0;right=0;pointerEvents=1;fontSize=16;" vertex="1" parent="RJNzWupUDamrCCXYR7qD-201">
          <mxGeometry width="50" height="40" as="geometry">
            <mxRectangle width="50" height="40" as="alternateBounds" />
          </mxGeometry>
        </mxCell>
        <mxCell id="RJNzWupUDamrCCXYR7qD-203" value="&lt;span style=&quot;text-wrap-mode: nowrap;&quot;&gt;Стоимость сделки&lt;/span&gt;" style="shape=partialRectangle;html=1;whiteSpace=wrap;connectable=0;strokeColor=inherit;overflow=hidden;fillColor=none;top=0;left=0;bottom=0;right=0;pointerEvents=1;fontSize=12;align=left;" vertex="1" parent="RJNzWupUDamrCCXYR7qD-201">
          <mxGeometry x="50" width="130" height="40" as="geometry">
            <mxRectangle width="130" height="40" as="alternateBounds" />
          </mxGeometry>
        </mxCell>
        <mxCell id="RJNzWupUDamrCCXYR7qD-204" value="" style="shape=partialRectangle;html=1;whiteSpace=wrap;connectable=0;strokeColor=inherit;overflow=hidden;fillColor=none;top=0;left=0;bottom=0;right=0;pointerEvents=1;fontSize=16;" vertex="1" parent="RJNzWupUDamrCCXYR7qD-201">
          <mxGeometry x="180" width="60" height="40" as="geometry">
            <mxRectangle width="60" height="40" as="alternateBounds" />
          </mxGeometry>
        </mxCell>
        <mxCell id="RJNzWupUDamrCCXYR7qD-205" value="" style="shape=tableRow;horizontal=0;startSize=0;swimlaneHead=0;swimlaneBody=0;strokeColor=inherit;top=0;left=0;bottom=0;right=0;collapsible=0;dropTarget=0;fillColor=none;points=[[0,0.5],[1,0.5]];portConstraint=eastwest;fontSize=16;" vertex="1" parent="RJNzWupUDamrCCXYR7qD-184">
          <mxGeometry y="230" width="240" height="40" as="geometry" />
        </mxCell>
        <mxCell id="RJNzWupUDamrCCXYR7qD-206" value="&lt;span style=&quot;font-size: 12px;&quot;&gt;fk&lt;/span&gt;" style="shape=partialRectangle;html=1;whiteSpace=wrap;connectable=0;strokeColor=inherit;overflow=hidden;fillColor=none;top=0;left=0;bottom=0;right=0;pointerEvents=1;fontSize=16;" vertex="1" parent="RJNzWupUDamrCCXYR7qD-205">
          <mxGeometry width="50" height="40" as="geometry">
            <mxRectangle width="50" height="40" as="alternateBounds" />
          </mxGeometry>
        </mxCell>
        <mxCell id="RJNzWupUDamrCCXYR7qD-207" value="&lt;span style=&quot;text-wrap-mode: nowrap;&quot;&gt;Табельный номер&lt;/span&gt;" style="shape=partialRectangle;html=1;whiteSpace=wrap;connectable=0;strokeColor=inherit;overflow=hidden;fillColor=none;top=0;left=0;bottom=0;right=0;pointerEvents=1;fontSize=12;align=left;" vertex="1" parent="RJNzWupUDamrCCXYR7qD-205">
          <mxGeometry x="50" width="130" height="40" as="geometry">
            <mxRectangle width="130" height="40" as="alternateBounds" />
          </mxGeometry>
        </mxCell>
        <mxCell id="RJNzWupUDamrCCXYR7qD-208" value="" style="shape=partialRectangle;html=1;whiteSpace=wrap;connectable=0;strokeColor=inherit;overflow=hidden;fillColor=none;top=0;left=0;bottom=0;right=0;pointerEvents=1;fontSize=16;" vertex="1" parent="RJNzWupUDamrCCXYR7qD-205">
          <mxGeometry x="180" width="60" height="40" as="geometry">
            <mxRectangle width="60" height="40" as="alternateBounds" />
          </mxGeometry>
        </mxCell>
        <mxCell id="RJNzWupUDamrCCXYR7qD-209" value="" style="shape=tableRow;horizontal=0;startSize=0;swimlaneHead=0;swimlaneBody=0;strokeColor=inherit;top=0;left=0;bottom=0;right=0;collapsible=0;dropTarget=0;fillColor=none;points=[[0,0.5],[1,0.5]];portConstraint=eastwest;fontSize=16;" vertex="1" parent="RJNzWupUDamrCCXYR7qD-184">
          <mxGeometry y="270" width="240" height="40" as="geometry" />
        </mxCell>
        <mxCell id="RJNzWupUDamrCCXYR7qD-210" value="" style="shape=partialRectangle;html=1;whiteSpace=wrap;connectable=0;strokeColor=inherit;overflow=hidden;fillColor=none;top=0;left=0;bottom=0;right=0;pointerEvents=1;fontSize=16;" vertex="1" parent="RJNzWupUDamrCCXYR7qD-209">
          <mxGeometry width="50" height="40" as="geometry">
            <mxRectangle width="50" height="40" as="alternateBounds" />
          </mxGeometry>
        </mxCell>
        <mxCell id="RJNzWupUDamrCCXYR7qD-211" value="&lt;span style=&quot;text-wrap-mode: nowrap;&quot;&gt;Дата оформления&lt;/span&gt;" style="shape=partialRectangle;html=1;whiteSpace=wrap;connectable=0;strokeColor=inherit;overflow=hidden;fillColor=none;top=0;left=0;bottom=0;right=0;pointerEvents=1;fontSize=12;align=left;" vertex="1" parent="RJNzWupUDamrCCXYR7qD-209">
          <mxGeometry x="50" width="130" height="40" as="geometry">
            <mxRectangle width="130" height="40" as="alternateBounds" />
          </mxGeometry>
        </mxCell>
        <mxCell id="RJNzWupUDamrCCXYR7qD-212" value="" style="shape=partialRectangle;html=1;whiteSpace=wrap;connectable=0;strokeColor=inherit;overflow=hidden;fillColor=none;top=0;left=0;bottom=0;right=0;pointerEvents=1;fontSize=16;" vertex="1" parent="RJNzWupUDamrCCXYR7qD-209">
          <mxGeometry x="180" width="60" height="40" as="geometry">
            <mxRectangle width="60" height="40" as="alternateBounds" />
          </mxGeometry>
        </mxCell>
        <mxCell id="RJNzWupUDamrCCXYR7qD-213" value="" style="shape=tableRow;horizontal=0;startSize=0;swimlaneHead=0;swimlaneBody=0;strokeColor=inherit;top=0;left=0;bottom=0;right=0;collapsible=0;dropTarget=0;fillColor=none;points=[[0,0.5],[1,0.5]];portConstraint=eastwest;fontSize=16;" vertex="1" parent="RJNzWupUDamrCCXYR7qD-184">
          <mxGeometry y="310" width="240" height="40" as="geometry" />
        </mxCell>
        <mxCell id="RJNzWupUDamrCCXYR7qD-214" value="" style="shape=partialRectangle;html=1;whiteSpace=wrap;connectable=0;strokeColor=inherit;overflow=hidden;fillColor=none;top=0;left=0;bottom=0;right=0;pointerEvents=1;fontSize=16;" vertex="1" parent="RJNzWupUDamrCCXYR7qD-213">
          <mxGeometry width="50" height="40" as="geometry">
            <mxRectangle width="50" height="40" as="alternateBounds" />
          </mxGeometry>
        </mxCell>
        <mxCell id="RJNzWupUDamrCCXYR7qD-215" value="&lt;span style=&quot;text-wrap-mode: nowrap;&quot;&gt;% Вознаграждения&lt;/span&gt;" style="shape=partialRectangle;html=1;whiteSpace=wrap;connectable=0;strokeColor=inherit;overflow=hidden;fillColor=none;top=0;left=0;bottom=0;right=0;pointerEvents=1;fontSize=12;align=left;" vertex="1" parent="RJNzWupUDamrCCXYR7qD-213">
          <mxGeometry x="50" width="130" height="40" as="geometry">
            <mxRectangle width="130" height="40" as="alternateBounds" />
          </mxGeometry>
        </mxCell>
        <mxCell id="RJNzWupUDamrCCXYR7qD-216" value="" style="shape=partialRectangle;html=1;whiteSpace=wrap;connectable=0;strokeColor=inherit;overflow=hidden;fillColor=none;top=0;left=0;bottom=0;right=0;pointerEvents=1;fontSize=16;" vertex="1" parent="RJNzWupUDamrCCXYR7qD-213">
          <mxGeometry x="180" width="60" height="40" as="geometry">
            <mxRectangle width="60" height="40" as="alternateBounds" />
          </mxGeometry>
        </mxCell>
        <mxCell id="RJNzWupUDamrCCXYR7qD-284" value="" style="shape=tableRow;horizontal=0;startSize=0;swimlaneHead=0;swimlaneBody=0;strokeColor=inherit;top=0;left=0;bottom=0;right=0;collapsible=0;dropTarget=0;fillColor=none;points=[[0,0.5],[1,0.5]];portConstraint=eastwest;fontSize=16;" vertex="1" parent="RJNzWupUDamrCCXYR7qD-184">
          <mxGeometry y="350" width="240" height="40" as="geometry" />
        </mxCell>
        <mxCell id="RJNzWupUDamrCCXYR7qD-285" value="" style="shape=partialRectangle;html=1;whiteSpace=wrap;connectable=0;strokeColor=inherit;overflow=hidden;fillColor=none;top=0;left=0;bottom=0;right=0;pointerEvents=1;fontSize=16;" vertex="1" parent="RJNzWupUDamrCCXYR7qD-284">
          <mxGeometry width="50" height="40" as="geometry">
            <mxRectangle width="50" height="40" as="alternateBounds" />
          </mxGeometry>
        </mxCell>
        <mxCell id="RJNzWupUDamrCCXYR7qD-286" value="&lt;span style=&quot;text-wrap-mode: nowrap;&quot;&gt;Вознаграждение&lt;/span&gt;" style="shape=partialRectangle;html=1;whiteSpace=wrap;connectable=0;strokeColor=inherit;overflow=hidden;fillColor=none;top=0;left=0;bottom=0;right=0;pointerEvents=1;fontSize=12;align=left;" vertex="1" parent="RJNzWupUDamrCCXYR7qD-284">
          <mxGeometry x="50" width="130" height="40" as="geometry">
            <mxRectangle width="130" height="40" as="alternateBounds" />
          </mxGeometry>
        </mxCell>
        <mxCell id="RJNzWupUDamrCCXYR7qD-287" value="" style="shape=partialRectangle;html=1;whiteSpace=wrap;connectable=0;strokeColor=inherit;overflow=hidden;fillColor=none;top=0;left=0;bottom=0;right=0;pointerEvents=1;fontSize=16;" vertex="1" parent="RJNzWupUDamrCCXYR7qD-284">
          <mxGeometry x="180" width="60" height="40" as="geometry">
            <mxRectangle width="60" height="40" as="alternateBounds" />
          </mxGeometry>
        </mxCell>
        <mxCell id="RJNzWupUDamrCCXYR7qD-330" value="" style="html=1;verticalAlign=bottom;endArrow=block;rounded=0;elbow=vertical;entryX=1;entryY=0.5;entryDx=0;entryDy=0;exitX=0;exitY=0.5;exitDx=0;exitDy=0;edgeStyle=orthogonalEdgeStyle;shape=link;" edge="1" parent="WIyWlLk6GJQsqaUBKTNV-1" source="RJNzWupUDamrCCXYR7qD-321" target="RJNzWupUDamrCCXYR7qD-128">
          <mxGeometry width="80" relative="1" as="geometry">
            <mxPoint x="380" y="400" as="sourcePoint" />
            <mxPoint x="460" y="400" as="targetPoint" />
            <Array as="points">
              <mxPoint x="550" y="450" />
              <mxPoint x="550" y="80" />
            </Array>
          </mxGeometry>
        </mxCell>
        <mxCell id="RJNzWupUDamrCCXYR7qD-331" value="" style="html=1;verticalAlign=bottom;endArrow=block;rounded=0;elbow=vertical;entryX=0;entryY=0.5;entryDx=0;entryDy=0;exitX=0;exitY=0.5;exitDx=0;exitDy=0;edgeStyle=orthogonalEdgeStyle;shape=link;" edge="1" parent="WIyWlLk6GJQsqaUBKTNV-1" source="RJNzWupUDamrCCXYR7qD-205" target="RJNzWupUDamrCCXYR7qD-128">
          <mxGeometry width="80" relative="1" as="geometry">
            <mxPoint x="380" y="400" as="sourcePoint" />
            <mxPoint x="460" y="400" as="targetPoint" />
            <Array as="points">
              <mxPoint x="20" y="660" />
              <mxPoint x="20" y="80" />
            </Array>
          </mxGeometry>
        </mxCell>
        <mxCell id="RJNzWupUDamrCCXYR7qD-344" value="" style="html=1;verticalAlign=bottom;endArrow=block;rounded=0;elbow=vertical;entryX=1;entryY=0.5;entryDx=0;entryDy=0;edgeStyle=orthogonalEdgeStyle;exitX=1;exitY=0.5;exitDx=0;exitDy=0;shape=link;" edge="1" parent="WIyWlLk6GJQsqaUBKTNV-1" source="RJNzWupUDamrCCXYR7qD-333" target="RJNzWupUDamrCCXYR7qD-164">
          <mxGeometry width="80" relative="1" as="geometry">
            <mxPoint x="870" y="990" as="sourcePoint" />
            <mxPoint x="1153.0000000000002" y="129.9999999999999" as="targetPoint" />
            <Array as="points">
              <mxPoint x="950" y="1075" />
              <mxPoint x="950" y="130" />
            </Array>
          </mxGeometry>
        </mxCell>
        <mxCell id="RJNzWupUDamrCCXYR7qD-348" value="" style="html=1;verticalAlign=bottom;endArrow=block;rounded=0;elbow=vertical;exitX=1;exitY=0.5;exitDx=0;exitDy=0;entryX=1;entryY=0.5;entryDx=0;entryDy=0;edgeStyle=orthogonalEdgeStyle;shape=link;" edge="1" parent="WIyWlLk6GJQsqaUBKTNV-1" source="RJNzWupUDamrCCXYR7qD-321" target="RJNzWupUDamrCCXYR7qD-205">
          <mxGeometry x="-0.0016" width="80" relative="1" as="geometry">
            <mxPoint x="410" y="600" as="sourcePoint" />
            <mxPoint x="460" y="660" as="targetPoint" />
            <Array as="points">
              <mxPoint x="890" y="450" />
              <mxPoint x="890" y="660" />
            </Array>
            <mxPoint as="offset" />
          </mxGeometry>
        </mxCell>
        <mxCell id="RJNzWupUDamrCCXYR7qD-350" value="" style="html=1;verticalAlign=bottom;endArrow=block;rounded=0;elbow=vertical;exitX=1;exitY=0.5;exitDx=0;exitDy=0;entryX=0;entryY=0.5;entryDx=0;entryDy=0;shape=link;edgeStyle=orthogonalEdgeStyle;" edge="1" parent="WIyWlLk6GJQsqaUBKTNV-1" source="RJNzWupUDamrCCXYR7qD-189" target="RJNzWupUDamrCCXYR7qD-164">
          <mxGeometry width="80" relative="1" as="geometry">
            <mxPoint x="420" y="480" as="sourcePoint" />
            <mxPoint x="500" y="480" as="targetPoint" />
          </mxGeometry>
        </mxCell>
        <mxCell id="RJNzWupUDamrCCXYR7qD-351" value="" style="html=1;verticalAlign=bottom;endArrow=block;rounded=0;elbow=vertical;exitX=0;exitY=0.5;exitDx=0;exitDy=0;entryX=0;entryY=0.5;entryDx=0;entryDy=0;shape=link;edgeStyle=orthogonalEdgeStyle;" edge="1" parent="WIyWlLk6GJQsqaUBKTNV-1" source="RJNzWupUDamrCCXYR7qD-48" target="RJNzWupUDamrCCXYR7qD-193">
          <mxGeometry width="80" relative="1" as="geometry">
            <mxPoint x="420" y="760" as="sourcePoint" />
            <mxPoint x="500" y="760" as="targetPoint" />
            <Array as="points">
              <mxPoint x="260" y="895" />
              <mxPoint x="260" y="540" />
            </Array>
          </mxGeometry>
        </mxCell>
        <mxCell id="RJNzWupUDamrCCXYR7qD-352" value="" style="html=1;verticalAlign=bottom;endArrow=block;rounded=0;elbow=vertical;exitX=0;exitY=0.5;exitDx=0;exitDy=0;entryX=0;entryY=0.5;entryDx=0;entryDy=0;shape=link;edgeStyle=orthogonalEdgeStyle;" edge="1" parent="WIyWlLk6GJQsqaUBKTNV-1" source="RJNzWupUDamrCCXYR7qD-333" target="RJNzWupUDamrCCXYR7qD-189">
          <mxGeometry width="80" relative="1" as="geometry">
            <mxPoint x="420" y="760" as="sourcePoint" />
            <mxPoint x="500" y="760" as="targetPoint" />
            <Array as="points">
              <mxPoint x="280" y="1075" />
              <mxPoint x="280" y="500" />
            </Array>
          </mxGeometry>
        </mxCell>
        <mxCell id="RJNzWupUDamrCCXYR7qD-353" value="" style="html=1;verticalAlign=bottom;endArrow=block;rounded=0;elbow=vertical;exitX=0;exitY=0.5;exitDx=0;exitDy=0;entryX=-0.007;entryY=0.313;entryDx=0;entryDy=0;entryPerimeter=0;shape=link;edgeStyle=orthogonalEdgeStyle;" edge="1" parent="WIyWlLk6GJQsqaUBKTNV-1" source="RJNzWupUDamrCCXYR7qD-337" target="RJNzWupUDamrCCXYR7qD-185">
          <mxGeometry width="80" relative="1" as="geometry">
            <mxPoint x="420" y="760" as="sourcePoint" />
            <mxPoint x="500" y="760" as="targetPoint" />
            <Array as="points">
              <mxPoint x="200" y="1105" />
              <mxPoint x="200" y="453" />
            </Array>
          </mxGeometry>
        </mxCell>
        <mxCell id="RJNzWupUDamrCCXYR7qD-354" value="Риелторы_Квартиры" style="shape=table;startSize=30;container=1;collapsible=0;childLayout=tableLayout;strokeColor=default;fontSize=16;" vertex="1" parent="WIyWlLk6GJQsqaUBKTNV-1">
          <mxGeometry x="350" y="100" width="180" height="150" as="geometry" />
        </mxCell>
        <mxCell id="RJNzWupUDamrCCXYR7qD-355" value="" style="shape=tableRow;horizontal=0;startSize=0;swimlaneHead=0;swimlaneBody=0;strokeColor=inherit;top=0;left=0;bottom=0;right=0;collapsible=0;dropTarget=0;fillColor=none;points=[[0,0.5],[1,0.5]];portConstraint=eastwest;fontSize=16;" vertex="1" parent="RJNzWupUDamrCCXYR7qD-354">
          <mxGeometry y="30" width="180" height="40" as="geometry" />
        </mxCell>
        <mxCell id="RJNzWupUDamrCCXYR7qD-356" value="pk" style="shape=partialRectangle;html=1;whiteSpace=wrap;connectable=0;strokeColor=inherit;overflow=hidden;fillColor=none;top=0;left=0;bottom=0;right=0;pointerEvents=1;fontSize=16;" vertex="1" parent="RJNzWupUDamrCCXYR7qD-355">
          <mxGeometry width="40" height="40" as="geometry">
            <mxRectangle width="40" height="40" as="alternateBounds" />
          </mxGeometry>
        </mxCell>
        <mxCell id="RJNzWupUDamrCCXYR7qD-357" value="id" style="shape=partialRectangle;html=1;whiteSpace=wrap;connectable=0;strokeColor=inherit;overflow=hidden;fillColor=none;top=0;left=0;bottom=0;right=0;pointerEvents=1;fontSize=12;align=left;" vertex="1" parent="RJNzWupUDamrCCXYR7qD-355">
          <mxGeometry x="40" width="100" height="40" as="geometry">
            <mxRectangle width="100" height="40" as="alternateBounds" />
          </mxGeometry>
        </mxCell>
        <mxCell id="RJNzWupUDamrCCXYR7qD-358" value="" style="shape=partialRectangle;html=1;whiteSpace=wrap;connectable=0;strokeColor=inherit;overflow=hidden;fillColor=none;top=0;left=0;bottom=0;right=0;pointerEvents=1;fontSize=16;" vertex="1" parent="RJNzWupUDamrCCXYR7qD-355">
          <mxGeometry x="140" width="40" height="40" as="geometry">
            <mxRectangle width="40" height="40" as="alternateBounds" />
          </mxGeometry>
        </mxCell>
        <mxCell id="RJNzWupUDamrCCXYR7qD-359" value="" style="shape=tableRow;horizontal=0;startSize=0;swimlaneHead=0;swimlaneBody=0;strokeColor=inherit;top=0;left=0;bottom=0;right=0;collapsible=0;dropTarget=0;fillColor=none;points=[[0,0.5],[1,0.5]];portConstraint=eastwest;fontSize=16;" vertex="1" parent="RJNzWupUDamrCCXYR7qD-354">
          <mxGeometry y="70" width="180" height="40" as="geometry" />
        </mxCell>
        <mxCell id="RJNzWupUDamrCCXYR7qD-360" value="fk" style="shape=partialRectangle;html=1;whiteSpace=wrap;connectable=0;strokeColor=inherit;overflow=hidden;fillColor=none;top=0;left=0;bottom=0;right=0;pointerEvents=1;fontSize=16;" vertex="1" parent="RJNzWupUDamrCCXYR7qD-359">
          <mxGeometry width="40" height="40" as="geometry">
            <mxRectangle width="40" height="40" as="alternateBounds" />
          </mxGeometry>
        </mxCell>
        <mxCell id="RJNzWupUDamrCCXYR7qD-361" value="Код квартиры" style="shape=partialRectangle;html=1;whiteSpace=wrap;connectable=0;strokeColor=inherit;overflow=hidden;fillColor=none;top=0;left=0;bottom=0;right=0;pointerEvents=1;fontSize=12;align=left;" vertex="1" parent="RJNzWupUDamrCCXYR7qD-359">
          <mxGeometry x="40" width="100" height="40" as="geometry">
            <mxRectangle width="100" height="40" as="alternateBounds" />
          </mxGeometry>
        </mxCell>
        <mxCell id="RJNzWupUDamrCCXYR7qD-362" value="" style="shape=partialRectangle;html=1;whiteSpace=wrap;connectable=0;strokeColor=inherit;overflow=hidden;fillColor=none;top=0;left=0;bottom=0;right=0;pointerEvents=1;fontSize=16;" vertex="1" parent="RJNzWupUDamrCCXYR7qD-359">
          <mxGeometry x="140" width="40" height="40" as="geometry">
            <mxRectangle width="40" height="40" as="alternateBounds" />
          </mxGeometry>
        </mxCell>
        <mxCell id="RJNzWupUDamrCCXYR7qD-363" value="" style="shape=tableRow;horizontal=0;startSize=0;swimlaneHead=0;swimlaneBody=0;strokeColor=inherit;top=0;left=0;bottom=0;right=0;collapsible=0;dropTarget=0;fillColor=none;points=[[0,0.5],[1,0.5]];portConstraint=eastwest;fontSize=16;" vertex="1" parent="RJNzWupUDamrCCXYR7qD-354">
          <mxGeometry y="110" width="180" height="40" as="geometry" />
        </mxCell>
        <mxCell id="RJNzWupUDamrCCXYR7qD-364" value="fk" style="shape=partialRectangle;html=1;whiteSpace=wrap;connectable=0;strokeColor=inherit;overflow=hidden;fillColor=none;top=0;left=0;bottom=0;right=0;pointerEvents=1;fontSize=16;" vertex="1" parent="RJNzWupUDamrCCXYR7qD-363">
          <mxGeometry width="40" height="40" as="geometry">
            <mxRectangle width="40" height="40" as="alternateBounds" />
          </mxGeometry>
        </mxCell>
        <mxCell id="RJNzWupUDamrCCXYR7qD-365" value="Табельный номер" style="shape=partialRectangle;html=1;whiteSpace=wrap;connectable=0;strokeColor=inherit;overflow=hidden;fillColor=none;top=0;left=0;bottom=0;right=0;pointerEvents=1;fontSize=12;align=left;" vertex="1" parent="RJNzWupUDamrCCXYR7qD-363">
          <mxGeometry x="40" width="100" height="40" as="geometry">
            <mxRectangle width="100" height="40" as="alternateBounds" />
          </mxGeometry>
        </mxCell>
        <mxCell id="RJNzWupUDamrCCXYR7qD-366" value="" style="shape=partialRectangle;html=1;whiteSpace=wrap;connectable=0;strokeColor=inherit;overflow=hidden;fillColor=none;top=0;left=0;bottom=0;right=0;pointerEvents=1;fontSize=16;" vertex="1" parent="RJNzWupUDamrCCXYR7qD-363">
          <mxGeometry x="140" width="40" height="40" as="geometry">
            <mxRectangle width="40" height="40" as="alternateBounds" />
          </mxGeometry>
        </mxCell>
        <mxCell id="RJNzWupUDamrCCXYR7qD-369" value="" style="html=1;verticalAlign=bottom;endArrow=block;rounded=0;elbow=vertical;exitX=1;exitY=0.5;exitDx=0;exitDy=0;entryX=1;entryY=0.5;entryDx=0;entryDy=0;edgeStyle=orthogonalEdgeStyle;shape=link;" edge="1" parent="WIyWlLk6GJQsqaUBKTNV-1" source="RJNzWupUDamrCCXYR7qD-359" target="RJNzWupUDamrCCXYR7qD-164">
          <mxGeometry width="80" relative="1" as="geometry">
            <mxPoint x="410" y="500" as="sourcePoint" />
            <mxPoint x="490" y="500" as="targetPoint" />
            <Array as="points">
              <mxPoint x="570" y="190" />
              <mxPoint x="570" y="50" />
              <mxPoint x="890" y="50" />
              <mxPoint x="890" y="130" />
            </Array>
          </mxGeometry>
        </mxCell>
        <mxCell id="RJNzWupUDamrCCXYR7qD-370" value="" style="html=1;verticalAlign=bottom;endArrow=block;rounded=0;elbow=vertical;exitX=0;exitY=0.5;exitDx=0;exitDy=0;edgeStyle=orthogonalEdgeStyle;shape=link;" edge="1" parent="WIyWlLk6GJQsqaUBKTNV-1" source="RJNzWupUDamrCCXYR7qD-363">
          <mxGeometry width="80" relative="1" as="geometry">
            <mxPoint x="350" y="500" as="sourcePoint" />
            <mxPoint x="290" y="80" as="targetPoint" />
            <Array as="points">
              <mxPoint x="310" y="230" />
              <mxPoint x="310" y="80" />
            </Array>
          </mxGeometry>
        </mxCell>
      </root>
    </mxGraphModel>
  </diagram>
</mxfile>
